<svg width="24" height="24" viewBox="0 0 24 24" fill="none" xmlns="http://www.w3.org/2000/svg">
<path d="M19.8747 9.19922C19.3117 9.1983 18.794 9.50727 18.5274 10.0033C18.2608 10.499 18.2889 11.1014 18.6002 11.5703L16.4349 13.7357C16.0364 13.4698 15.5357 13.4074 15.0841 13.5678C14.6323 13.7281 14.2829 14.0919 14.1411 14.5499L11.295 14.2507C11.2377 13.6225 10.7995 13.0944 10.1926 12.9224C9.58575 12.7502 8.93557 12.9696 8.55682 13.4741C8.17823 13.9787 8.14921 14.6641 8.48414 15.1988L5.46063 18.0431C4.81037 17.5778 3.91326 17.6812 3.38608 18.2825C2.85883 18.8835 2.87323 19.7863 3.41932 20.3704C3.96542 20.9545 4.86536 21.0293 5.50046 20.5437C6.13547 20.0581 6.299 19.1698 5.87843 18.4899L8.90187 15.6457C9.29838 15.9284 9.80664 16.0034 10.2679 15.8475C10.7294 15.6916 11.0878 15.3237 11.2314 14.8584L14.0775 15.1575C14.1381 15.7896 14.5842 16.3181 15.1972 16.484C15.8103 16.6501 16.462 16.4188 16.8331 15.9035C17.2045 15.3882 17.2176 14.6968 16.8662 14.1678L19.0315 12.0025C19.5771 12.3647 20.2926 12.3391 20.8112 11.9392C21.3297 11.5392 21.5359 10.8535 21.3241 10.2338C21.1124 9.61419 20.5295 9.19823 19.8747 9.19922ZM4.5829 20.2093C4.07625 20.2093 3.66533 19.7986 3.66533 19.2918C3.66533 18.7851 4.07625 18.3743 4.5829 18.3743C5.08955 18.3743 5.50046 18.7851 5.50046 19.2918C5.50046 19.7986 5.08955 20.2093 4.5829 20.2093ZM9.78213 15.3159C9.2754 15.3159 8.86457 14.9052 8.86457 14.3984C8.86457 13.8917 9.2754 13.4808 9.78213 13.4808C10.2888 13.4808 10.6996 13.8917 10.6996 14.3984C10.6996 14.9052 10.2888 15.3159 9.78213 15.3159ZM15.5929 15.9276C15.0863 15.9276 14.6755 15.5168 14.6755 15.01C14.6755 14.5034 15.0863 14.0926 15.5929 14.0926C16.0997 14.0926 16.5105 14.5034 16.5105 15.01C16.5105 15.5168 16.0997 15.9276 15.5929 15.9276ZM19.8747 11.6458C19.368 11.6458 18.9572 11.2352 18.9572 10.7284C18.9572 10.2217 19.368 9.81088 19.8747 9.81088C20.3814 9.81088 20.7922 10.2217 20.7922 10.7284C20.7922 11.2352 20.3814 11.6458 19.8747 11.6458Z" fill="white"/>
<path d="M3.66509 11.9518C3.74628 11.9518 3.82409 11.9195 3.88138 11.8622L6.41762 9.32584L7.8835 10.7917C8.00305 10.911 8.1966 10.911 8.31601 10.7917L11.464 7.64374L14.1532 10.3329C14.2726 10.4523 14.4661 10.4523 14.5857 10.3329L19.8744 5.04417V5.52922C19.8744 5.69818 20.0113 5.83505 20.1803 5.83505C20.3492 5.83505 20.4861 5.69818 20.4861 5.52922V4.30583C20.4853 4.26922 20.4783 4.23314 20.4647 4.19921C20.4606 4.18864 20.4558 4.17853 20.4506 4.16842C20.4391 4.1456 20.4247 4.12423 20.4078 4.10493C20.3805 4.07115 20.3456 4.0445 20.3057 4.02719C20.3028 4.02719 20.3008 4.02367 20.298 4.02267C20.2639 4.00927 20.2276 4.00214 20.1911 4.00153C20.1868 4.00184 20.1839 4 20.1803 4H18.957C18.788 4 18.6511 4.1371 18.6511 4.30583C18.6511 4.47471 18.788 4.61166 18.957 4.61166H19.4419L14.3694 9.68428L11.6802 6.99509C11.5608 6.87584 11.3672 6.87584 11.2477 6.99509L8.09979 10.143L6.63399 8.67711C6.51443 8.55786 6.32088 8.55786 6.20148 8.67711L3.44895 11.4296C3.36163 11.5173 3.33529 11.6488 3.38262 11.763C3.42995 11.8773 3.54147 11.9518 3.66509 11.9518Z" fill="white"/>
</svg>
