<svg width="24" height="24" viewBox="0 0 24 24" fill="none" xmlns="http://www.w3.org/2000/svg">
<path d="M19.4828 20.5632H18.2345V5.11927C18.2343 4.87372 18.1366 4.6383 17.963 4.46467C17.7893 4.29103 17.5539 4.19338 17.3084 4.19312H12.1643V2.28139C12.1642 2.20672 12.1344 2.13514 12.0816 2.08239C12.0287 2.02963 11.9571 2 11.8824 2H7.17113C7.09646 2 7.02484 2.02963 6.97199 2.08239C6.91914 2.13514 6.88939 2.20672 6.88926 2.28139V4.19312H6.45631C6.21077 4.19342 5.97537 4.29109 5.80175 4.46471C5.62813 4.63833 5.53046 4.87373 5.53016 5.11927V20.5632H4.28187C4.20713 20.5633 4.13546 20.593 4.08261 20.6459C4.02975 20.6987 4.00004 20.7704 4 20.8451V22.3345C4.00004 22.4093 4.02975 22.4809 4.08261 22.5338C4.13546 22.5866 4.20713 22.6164 4.28187 22.6164H19.4828C19.5576 22.6164 19.6292 22.5867 19.6821 22.5338C19.735 22.481 19.7647 22.4093 19.7647 22.3345V20.8451C19.7647 20.7704 19.735 20.6987 19.6821 20.6458C19.6292 20.5929 19.5576 20.5632 19.4828 20.5632ZM7.45301 2.56374H11.6005V4.19312H7.45301V2.56374ZM6.0939 5.11927C6.09403 5.02319 6.13225 4.93109 6.20019 4.86315C6.26813 4.79521 6.36023 4.75699 6.45631 4.75686H17.3084C17.4044 4.75695 17.4966 4.79516 17.5645 4.8631C17.6325 4.93105 17.6707 5.02318 17.6708 5.11927V20.5632H13.9763V17.5029H14.6805C14.7553 17.5029 14.827 17.4732 14.8798 17.4204C14.9327 17.3675 14.9624 17.2958 14.9624 17.2211V15.9534C14.9624 15.8787 14.9327 15.807 14.8798 15.7541C14.827 15.7013 14.7553 15.6716 14.6805 15.6716H9.08383C9.00908 15.6716 8.93738 15.7013 8.88452 15.7541C8.83166 15.807 8.80196 15.8787 8.80196 15.9534V17.2211C8.80196 17.2958 8.83166 17.3675 8.88452 17.4204C8.93738 17.4732 9.00908 17.5029 9.08383 17.5029H9.78851V20.5632H6.0939V5.11927ZM9.3657 16.9384V16.2345H14.3991V16.9384H9.3657ZM10.3518 17.5021H13.4126V20.5624H10.3523L10.3518 17.5021ZM19.2009 22.0527H4.56374V21.127H19.2009V22.0527Z" fill="white"/>
<path d="M7.4225 7.92016H10.6943C10.7691 7.92016 10.8408 7.89047 10.8936 7.8376C10.9465 7.78474 10.9762 7.71305 10.9762 7.63829V6.08558C10.9762 6.04856 10.9689 6.0119 10.9548 5.97769C10.9406 5.94348 10.9198 5.9124 10.8937 5.88622C10.8675 5.86004 10.8364 5.83928 10.8022 5.82512C10.768 5.81097 10.7313 5.80369 10.6943 5.80371H7.4225C7.34774 5.80371 7.27604 5.83341 7.22318 5.88627C7.17032 5.93913 7.14062 6.01083 7.14062 6.08558V7.63829C7.14067 7.71304 7.17038 7.78471 7.22323 7.83756C7.27608 7.89041 7.34775 7.92012 7.4225 7.92016ZM7.70437 6.36745H10.4124V7.35642H7.70437V6.36745Z" fill="white"/>
<path d="M7.4225 11.2712H10.6943C10.7313 11.2713 10.768 11.264 10.8022 11.2498C10.8364 11.2357 10.8675 11.2149 10.8937 11.1887C10.9198 11.1625 10.9406 11.1315 10.9548 11.0973C10.9689 11.063 10.9762 11.0264 10.9762 10.9894V9.43666C10.9762 9.3619 10.9465 9.2902 10.8936 9.23734C10.8408 9.18448 10.7691 9.15479 10.6943 9.15479H7.4225C7.34775 9.15483 7.27608 9.18454 7.22323 9.23739C7.17038 9.29024 7.14067 9.36191 7.14062 9.43666V10.9894C7.14062 11.0641 7.17032 11.1358 7.22318 11.1887C7.27604 11.2415 7.34774 11.2712 7.4225 11.2712ZM7.70437 9.71853H10.4124V10.7075H7.70437V9.71853Z" fill="white"/>
<path d="M10.9762 14.3404V12.7877C10.9762 12.7507 10.9689 12.714 10.9548 12.6798C10.9406 12.6456 10.9198 12.6145 10.8937 12.5884C10.8675 12.5622 10.8364 12.5414 10.8022 12.5273C10.768 12.5131 10.7313 12.5058 10.6943 12.5059H7.4225C7.34774 12.5059 7.27604 12.5356 7.22318 12.5884C7.17032 12.6413 7.14062 12.713 7.14062 12.7877V14.3404C7.14067 14.4152 7.17038 14.4869 7.22323 14.5397C7.27608 14.5926 7.34775 14.6223 7.4225 14.6223H10.6943C10.7691 14.6223 10.8408 14.5926 10.8936 14.5398C10.9465 14.4869 10.9762 14.4152 10.9762 14.3404ZM10.4124 14.0586H7.70437V13.0696H10.4124V14.0586Z" fill="white"/>
<path d="M13.0709 7.92016H16.3426C16.4173 7.92016 16.489 7.89047 16.5419 7.8376C16.5948 7.78474 16.6244 7.71305 16.6244 7.63829V6.08558C16.6245 6.04856 16.6172 6.0119 16.603 5.97769C16.5889 5.94348 16.5681 5.9124 16.5419 5.88622C16.5158 5.86004 16.4847 5.83928 16.4505 5.82512C16.4163 5.81097 16.3796 5.80369 16.3426 5.80371H13.0709C13.0339 5.80369 12.9972 5.81097 12.963 5.82512C12.9288 5.83928 12.8978 5.86004 12.8716 5.88622C12.8454 5.9124 12.8246 5.94348 12.8105 5.97769C12.7963 6.0119 12.789 6.04856 12.7891 6.08558V7.63829C12.7891 7.71305 12.8188 7.78474 12.8716 7.8376C12.9245 7.89047 12.9962 7.92016 13.0709 7.92016ZM13.3528 6.36745H16.0607V7.35642H13.3528V6.36745Z" fill="white"/>
<path d="M13.0709 11.2712H16.3426C16.3796 11.2713 16.4163 11.264 16.4505 11.2498C16.4847 11.2357 16.5158 11.2149 16.5419 11.1887C16.5681 11.1625 16.5889 11.1315 16.603 11.0973C16.6172 11.063 16.6245 11.0264 16.6244 10.9894V9.43666C16.6244 9.3619 16.5948 9.2902 16.5419 9.23734C16.489 9.18448 16.4173 9.15479 16.3426 9.15479H13.0709C12.9962 9.15479 12.9245 9.18448 12.8716 9.23734C12.8188 9.2902 12.7891 9.3619 12.7891 9.43666V10.9894C12.789 11.0264 12.7963 11.063 12.8105 11.0973C12.8246 11.1315 12.8454 11.1625 12.8716 11.1887C12.8978 11.2149 12.9288 11.2357 12.963 11.2498C12.9972 11.264 13.0339 11.2713 13.0709 11.2712ZM13.3528 9.71853H16.0607V10.7075H13.3528V9.71853Z" fill="white"/>
<path d="M13.0709 14.6223H16.3426C16.4173 14.6223 16.489 14.5926 16.5419 14.5398C16.5948 14.4869 16.6244 14.4152 16.6244 14.3404V12.7877C16.6245 12.7507 16.6172 12.714 16.603 12.6798C16.5889 12.6456 16.5681 12.6145 16.5419 12.5884C16.5158 12.5622 16.4847 12.5414 16.4505 12.5273C16.4163 12.5131 16.3796 12.5058 16.3426 12.5059H13.0709C13.0339 12.5058 12.9972 12.5131 12.963 12.5273C12.9288 12.5414 12.8978 12.5622 12.8716 12.5884C12.8454 12.6145 12.8246 12.6456 12.8105 12.6798C12.7963 12.714 12.789 12.7507 12.7891 12.7877V14.3404C12.7891 14.4152 12.8188 14.4869 12.8716 14.5398C12.9245 14.5926 12.9962 14.6223 13.0709 14.6223ZM13.3528 13.0696H16.0607V14.0586H13.3528V13.0696Z" fill="white"/>
</svg>
