<svg width="24" height="24" viewBox="0 0 24 24" fill="none" xmlns="http://www.w3.org/2000/svg">
<path d="M20.2348 3H7.66171C7.23931 3.00049 6.89701 3.34279 6.89652 3.76519V7.23316L6.32157 6.37074C6.0584 5.97376 5.52913 5.85466 5.12129 6.10067L3.93841 6.81185C3.55103 7.03916 3.26686 7.40775 3.14561 7.84021C2.7141 9.41142 3.03428 12.1184 7.00757 16.0923C10.1673 19.2488 12.5232 20.0989 14.1469 20.0989C14.5228 20.1006 14.8973 20.0517 15.2602 19.9536C15.6925 19.8324 16.0611 19.5486 16.2888 19.1618L16.9991 17.9776C17.2441 17.5701 17.1251 17.0419 16.729 16.7788L13.8966 14.8908C13.5081 14.6338 12.9873 14.7183 12.6999 15.0849L11.8753 16.1451C11.7891 16.2585 11.6328 16.2916 11.508 16.2228L11.3511 16.1363C10.8346 15.8549 10.1919 15.5044 8.89379 14.2063C8.75334 14.0658 8.62611 13.9344 8.50669 13.8087H20.2348C20.6562 13.809 20.9983 13.4684 21 13.0471V3.76519C20.9995 3.34279 20.6572 3.00049 20.2348 3ZM11.0639 16.6633L11.2164 16.747C11.5996 16.9613 12.0819 16.8619 12.3491 16.5136L13.1738 15.4534C13.2675 15.334 13.4371 15.3065 13.5638 15.3901L16.3962 17.2782C16.5249 17.3639 16.5636 17.5356 16.4841 17.6683L15.7739 18.8524C15.6256 19.1067 15.3846 19.2938 15.1014 19.3745C13.683 19.7646 11.2005 19.4345 7.43272 15.6665C3.66497 11.8985 3.33614 9.4162 3.72531 7.99895C3.80594 7.71584 3.99291 7.47488 4.24712 7.32649L5.43123 6.61591C5.56391 6.53665 5.73548 6.57529 5.82132 6.70382L7.71027 9.53622C7.79404 9.66289 7.7665 9.83266 7.64694 9.92631L6.58647 10.7512C6.23823 11.0184 6.13879 11.5006 6.35301 11.8837L6.43702 12.0361C6.73708 12.5865 7.11008 13.2712 8.46973 14.6306C9.82942 15.9899 10.5139 16.3632 11.0639 16.6633ZM20.3999 13.0471C20.3989 13.1374 20.3251 13.2098 20.2348 13.2091H7.96536C7.57563 12.7635 7.23956 12.2736 6.964 11.7496L6.87757 11.592C6.80864 11.4676 6.84163 11.3113 6.955 11.2253L8.01547 10.4004C8.38224 10.1131 8.46674 9.59227 8.20962 9.20374L7.49665 8.13367V3.76519C7.49616 3.72127 7.51339 3.679 7.54444 3.64795C7.57549 3.6169 7.61776 3.59967 7.66168 3.60016H20.2348C20.2787 3.59967 20.321 3.6169 20.352 3.64795C20.3831 3.679 20.4003 3.72127 20.3998 3.76519V13.0471H20.3999Z" fill="white"/>
<path d="M19.2008 4.38866L14.1856 8.1921C14.0437 8.29521 13.8516 8.29521 13.7097 8.1921L8.6964 4.38866C8.56432 4.28847 8.37602 4.31435 8.27587 4.44643C8.17568 4.57851 8.20156 4.76682 8.33364 4.86697L13.3476 8.6701C13.7043 8.93363 14.1911 8.93363 14.5479 8.6701L19.5633 4.86697C19.6268 4.81887 19.6685 4.74748 19.6793 4.66857C19.6901 4.58966 19.6691 4.5097 19.6209 4.44629C19.5207 4.31446 19.3328 4.28868 19.2008 4.38866Z" fill="white"/>
<path d="M11.3889 8.69656L8.31498 11.9884C8.20196 12.1096 8.2086 12.2995 8.32982 12.4125C8.45103 12.5256 8.64096 12.5189 8.75398 12.3977L11.828 9.1044C11.9295 8.98189 11.9177 8.80138 11.8012 8.69304C11.6846 8.5847 11.5037 8.58625 11.3889 8.69656Z" fill="white"/>
<path d="M16.5294 8.69555C16.4164 8.57434 16.2265 8.56766 16.1052 8.68071C15.984 8.79373 15.9773 8.98363 16.0904 9.10487L19.1635 12.3967C19.2765 12.5179 19.4664 12.5246 19.5876 12.4115C19.7088 12.2985 19.7155 12.1086 19.6025 11.9874L16.5294 8.69555Z" fill="white"/>
</svg>
