<svg width="24" height="24" viewBox="0 0 24 24" fill="none" xmlns="http://www.w3.org/2000/svg">
<path d="M21 11.9995C21 11.5716 20.773 11.1817 20.3919 10.9556L19.3896 10.3659C19.7758 10.1366 20.1198 9.93212 20.3927 9.76974C20.7731 9.54281 21 9.15288 21 8.72659C21 8.30031 20.773 7.91038 20.3927 7.68303C19.1399 6.93792 14.8916 4.4133 12.7974 3.21275C12.3124 2.93428 11.7227 2.92312 11.1986 3.21517C11.1986 3.21517 5.50325 6.56042 3.608 7.68268C3.22693 7.90877 3 8.2987 3 8.72659C3 9.15288 3.22693 9.54281 3.60723 9.77016C3.88011 9.93243 4.22413 10.1369 4.61014 10.366L3.60804 10.9556C3.22693 11.1817 3 11.5716 3 11.9995C3 12.4258 3.22693 12.8157 3.60723 13.0431C3.88011 13.2053 4.22413 13.4098 4.61014 13.639L3.60804 14.2285C3.22693 14.4546 3 14.8445 3 15.2724C3 15.6987 3.22693 16.0886 3.60723 16.316C5.22842 17.28 9.21306 19.6456 11.2026 20.7863C11.4463 20.9261 11.7228 21 12 21C12.2772 21 12.5537 20.9261 12.7982 20.7858C14.7869 19.6456 18.7716 17.28 20.3928 16.3156C20.7731 16.0886 21 15.6987 21 15.2724C21 14.8445 20.7731 14.4546 20.392 14.2285L19.3897 13.6388C19.7758 13.4095 20.1199 13.205 20.3928 13.0427C20.7731 12.8157 21 12.4258 21 11.9995ZM4.02592 9.06805C3.9636 9.0305 3.81817 8.92261 3.81817 8.72728C3.81817 8.53111 3.96279 8.42407 4.02512 8.38729C5.91795 7.26629 11.6053 3.92603 11.6045 3.92641C11.865 3.77979 12.1494 3.78539 12.3907 3.92361C14.4793 5.12094 18.7236 7.6426 19.974 8.38649C20.0364 8.42403 20.1818 8.53192 20.1818 8.72725C20.1818 8.92257 20.0364 9.03046 19.974 9.06762C18.3553 10.0304 14.3754 12.3935 12.3915 13.5305C12.1454 13.6711 11.8538 13.6707 11.6093 13.5309C9.62454 12.3935 5.64469 10.0305 4.02592 9.06805ZM19.9748 14.9327C20.0372 14.9695 20.1818 15.0766 20.1818 15.2727C20.1818 15.4681 20.0364 15.5759 19.974 15.6131C18.3553 16.5759 14.3754 18.939 12.3915 20.076C12.1454 20.2166 11.8538 20.2162 11.6093 20.0764C9.62454 18.939 5.64469 16.5759 4.02592 15.6135C3.9636 15.5759 3.81817 15.4681 3.81817 15.2727C3.81817 15.0766 3.96279 14.9695 4.02512 14.9327L5.41343 14.1158C7.28993 15.228 9.76525 16.6895 11.2026 17.5135C11.4463 17.6533 11.7228 17.7272 12 17.7272C12.2772 17.7272 12.5537 17.6533 12.7982 17.5131C14.2349 16.6894 16.71 15.2282 18.5865 14.1158L19.9748 14.9327ZM19.974 12.3404C18.3553 13.3032 14.3754 15.6663 12.3915 16.8033C12.1454 16.9439 11.8538 16.9435 11.6093 16.8036C9.62454 15.6662 5.64469 13.3032 4.02592 12.3408C3.9636 12.3032 3.81817 12.1953 3.81817 12C3.81817 11.8038 3.96279 11.6968 4.02512 11.66L5.41343 10.8431C7.28993 11.9553 9.76525 13.4168 11.2026 14.2408C11.4463 14.3806 11.7228 14.4545 12 14.4545C12.2772 14.4545 12.5537 14.3806 12.7982 14.2404C14.2349 13.4167 16.71 11.9554 18.5865 10.843L19.9749 11.66C20.0372 11.6968 20.1818 11.8038 20.1818 12C20.1818 12.1953 20.0364 12.3032 19.974 12.3404Z" fill="white"/>
</svg>
