<svg width="24" height="24" viewBox="0 0 24 24" fill="none" xmlns="http://www.w3.org/2000/svg">
<circle cx="12" cy="12" r="12" fill="#E7E7E7"/>
<path d="M16.021 7.30401H13.6989V6.42392C13.6989 6.18982 13.5091 6 13.275 6H10.1699C9.93584 6 9.74602 6.18979 9.74602 6.42392V7.30401H7.42392C7.18982 7.30401 7 7.4938 7 7.72793V9.03191C7 9.26602 7.18979 9.45584 7.42392 9.45584H7.5527L7.94016 18.5941C7.94976 18.821 8.13656 19 8.36368 19H15.0812C15.3084 19 15.4951 18.821 15.5047 18.594L15.8922 9.45581H16.021C16.2551 9.45581 16.4449 9.26602 16.4449 9.03189V7.72793C16.4449 7.49378 16.2551 7.30401 16.021 7.30401ZM10.5939 6.84782H12.8511V7.30401H10.5939V6.84782ZM14.6749 18.1522H8.77L8.40128 9.45584H15.0436L14.6749 18.1522ZM15.5971 8.60799C15.2119 8.60799 8.07859 8.60799 7.84784 8.60799V8.15183H15.5971V8.60799Z" fill="#626262"/>
<path d="M10.0138 10.7559C9.77966 10.7559 9.58984 10.9457 9.58984 11.1798V16.4284C9.58984 16.6625 9.77964 16.8523 10.0138 16.8523C10.2479 16.8523 10.4377 16.6625 10.4377 16.4284V11.1798C10.4377 10.9457 10.2479 10.7559 10.0138 10.7559Z" fill="#626262"/>
<path d="M11.7247 10.7559C11.4906 10.7559 11.3008 10.9457 11.3008 11.1798V16.4284C11.3008 16.6625 11.4906 16.8523 11.7247 16.8523C11.9588 16.8523 12.1486 16.6625 12.1486 16.4284V11.1798C12.1486 10.9457 11.9588 10.7559 11.7247 10.7559Z" fill="#626262"/>
<path d="M13.4239 10.7559C13.1898 10.7559 13 10.9457 13 11.1798V16.4284C13 16.6625 13.1898 16.8523 13.4239 16.8523C13.658 16.8523 13.8478 16.6625 13.8478 16.4284V11.1798C13.8478 10.9457 13.658 10.7559 13.4239 10.7559Z" fill="#626262"/>
</svg>
