<svg width="24" height="24" viewBox="0 0 24 24" fill="none" xmlns="http://www.w3.org/2000/svg">
<circle cx="12" cy="12" r="12" fill="#E7E7E7"/>
<path d="M19.4 7.24803C19.3994 6.64642 19.1643 6.08118 18.7377 5.65634C17.858 4.78007 16.4278 4.78128 15.549 5.65963L6.47158 14.7582C6.17632 15.0527 5.95094 15.4173 5.81976 15.8127L5.81129 15.8385L5 19.4L8.57749 18.6004L8.60413 18.5916C9.00031 18.4607 9.36578 18.2359 9.66181 17.9405L18.7405 8.84083C19.1663 8.41522 19.4005 7.84954 19.4 7.24803ZM6.98387 17.8046L6.60452 17.4256L6.87844 16.2229L8.19166 17.5346L6.98387 17.8046ZM17.9432 8.04696L9.12939 16.8812L7.53334 15.2868L13.5708 9.23546L14.4901 10.1533L15.2863 9.3584L14.3653 8.43895L15.2219 7.58059L16.1445 8.50168L16.9407 7.70682L16.0164 6.78408L16.3462 6.4535C16.7859 6.01405 17.502 6.01339 17.9424 6.45208C18.1559 6.66477 18.2736 6.94778 18.274 7.24891C18.2742 7.55016 18.157 7.83328 17.9432 8.04696ZM10.9235 18.2637H19.4V19.3878H9.80136L10.9235 18.2637Z" fill="#626262"/>
</svg>
