<svg width="24" height="24" viewBox="0 0 24 24" fill="none" xmlns="http://www.w3.org/2000/svg">
<path d="M19.5 7.25003H15.75V6.50001C15.75 5.67275 15.0773 5 14.25 5H9.74999C8.92273 5 8.24998 5.67271 8.24998 6.50001V7.25H4.50001C3.67271 7.25003 3 7.92274 3 8.75V18.5C3 19.3272 3.67271 20 4.50001 20H19.5C20.3273 20 21 19.3273 21 18.5V8.75C21 7.92274 20.3273 7.25003 19.5 7.25003ZM9 6.50001C9 6.08657 9.33655 5.75002 9.74999 5.75002H14.25C14.6634 5.75002 15 6.08657 15 6.50001V7.25H9V6.50001ZM20.25 18.5C20.25 18.9134 19.9134 19.25 19.5 19.25H4.50001C4.08657 19.25 3.75002 18.9134 3.75002 18.5V13.0414C3.97154 13.1706 4.22558 13.25 4.50001 13.25H10.5V14.375C10.5 14.5823 10.6677 14.75 10.875 14.75H13.125C13.3323 14.75 13.5 14.5823 13.5 14.375V13.25H19.5C19.7745 13.25 20.0285 13.1706 20.25 13.0414V18.5H20.25ZM11.25 14V12.5H12.75V14H11.25ZM20.25 11.75C20.25 12.1635 19.9134 12.5 19.5 12.5H13.5V12.125C13.5 11.9177 13.3323 11.75 13.125 11.75H10.875C10.6677 11.75 10.5 11.9177 10.5 12.125V12.5H4.50001C4.08657 12.5 3.75002 12.1635 3.75002 11.75V8.75004C3.75002 8.3366 4.08657 8.00005 4.50001 8.00005H19.5C19.9134 8.00005 20.25 8.3366 20.25 8.75004V11.75Z" fill="white"/>
</svg>
