<svg width="23" height="22" viewBox="0 0 23 22" fill="none" xmlns="http://www.w3.org/2000/svg">
<path d="M11.063 1.83329H2.76572C2.25682 1.83329 1.84383 2.24398 1.84383 2.74994V19.25C1.84383 19.756 2.25687 20.1666 2.76572 20.1666H11.063C11.5728 20.1666 11.9849 20.5764 11.9849 21.0833C11.9849 21.5902 11.5728 22 11.063 22H2.76572C1.24088 22 0 20.7661 0 19.25V2.74998C0 1.23382 1.24088 0 2.76572 0H11.063C11.5728 0 11.9849 0.409737 11.9849 0.916647C11.9849 1.42356 11.5728 1.83329 11.063 1.83329Z" fill="#626262"/>
<path d="M21.9246 11.6526L16.3194 17.1526C15.958 17.5083 15.3735 17.5037 15.0158 17.1434C14.6581 16.7832 14.6618 16.2029 15.025 15.8473L19.0307 11.9166H8.29689C7.78708 11.9166 7.375 11.5069 7.375 11C7.375 10.4931 7.78708 10.0833 8.29689 10.0833H19.0307L15.025 6.15262C14.6618 5.79695 14.659 5.2167 15.0158 4.85646C15.1965 4.67496 15.4343 4.5833 15.6722 4.5833C15.9064 4.5833 16.1405 4.6713 16.3194 4.84732L21.9246 10.3473C22.0998 10.5197 22.1993 10.7544 22.1993 11C22.1993 11.2456 22.1007 11.4793 21.9246 11.6526Z" fill="#626262"/>
</svg>
