<svg width="24" height="24" viewBox="0 0 24 24" fill="none" xmlns="http://www.w3.org/2000/svg">
<path d="M20.6284 18.5077C20.5615 18.4658 20.0583 18.1248 19.5543 17.0933C18.6289 15.1992 18.4346 12.5309 18.4346 10.6261C18.4346 10.6178 18.4345 10.6096 18.4342 10.6013C18.4241 8.08383 16.8653 5.91365 14.6348 4.93993V3.45077C14.6348 2.0994 13.4998 1 12.1048 1H11.8952C10.5001 1 9.36522 2.0994 9.36522 3.45077V4.93985C7.12719 5.9167 5.56534 8.09797 5.56534 10.6261C5.56534 12.5309 5.37109 15.1992 4.44566 17.0933C3.94178 18.1248 3.43852 18.4657 3.37161 18.5077C3.08983 18.6339 2.9509 18.9252 3.01572 19.2204C3.08117 19.5186 3.36934 19.7241 3.68404 19.7241H8.56899C8.59627 21.5349 10.1244 23 12 23C13.8756 23 15.4038 21.5349 15.431 19.7241H20.316C20.6306 19.7241 20.9189 19.5186 20.9843 19.2204C21.049 18.9252 20.9102 18.6338 20.6284 18.5077ZM10.6982 3.45077C10.6982 2.81135 11.2352 2.29117 11.8952 2.29117H12.1049C12.7649 2.29117 13.3019 2.81135 13.3019 3.45077V4.52142C12.8812 4.43733 12.4458 4.39307 11.9998 4.39307C11.554 4.39307 11.1187 4.43729 10.6982 4.52129L10.6982 3.45077ZM12 21.7088C10.8594 21.7088 9.92895 20.8229 9.9019 19.7242H14.0981C14.0711 20.8229 13.1407 21.7088 12 21.7088ZM14.6836 18.4329H5.20288C5.31818 18.2592 5.43552 18.0624 5.55215 17.8401C6.44537 16.1366 6.89829 13.7095 6.89829 10.6261C6.89829 7.90113 9.18684 5.68424 11.9998 5.68424C14.8128 5.68424 17.1013 7.90113 17.1013 10.6282C17.1013 10.6362 17.1014 10.6441 17.1017 10.652C17.1043 13.723 17.5572 16.1415 18.4479 17.8401C18.5645 18.0625 18.6819 18.2592 18.7972 18.4329H14.6836Z" fill="#626262"/>
<circle cx="17" cy="8" r="3.5" fill="#FF1212" stroke="white"/>
</svg>
