<svg width="24" height="24" viewBox="0 0 24 24" fill="none" xmlns="http://www.w3.org/2000/svg">
<path d="M10.9264 3C6.5559 3 3 6.5559 3 10.9264C3 15.2971 6.5559 18.8528 10.9264 18.8528C15.2971 18.8528 18.8528 15.2971 18.8528 10.9264C18.8528 6.5559 15.2971 3 10.9264 3ZM10.9264 17.3895C7.36269 17.3895 4.46333 14.4901 4.46333 10.9264C4.46333 7.36272 7.36269 4.46333 10.9264 4.46333C14.4901 4.46333 17.3894 7.36269 17.3894 10.9264C17.3894 14.4901 14.4901 17.3895 10.9264 17.3895Z" fill="#888888"/>
<path d="M20.7837 19.7501L16.5888 15.5552C16.303 15.2694 15.8401 15.2694 15.5542 15.5552C15.2684 15.8408 15.2684 16.3042 15.5542 16.5898L19.7491 20.7847C19.892 20.9276 20.0791 20.9991 20.2664 20.9991C20.4535 20.9991 20.6408 20.9276 20.7837 20.7847C21.0696 20.4991 21.0696 20.0357 20.7837 19.7501Z" fill="#888888"/>
</svg>
