<svg width="24" height="24" viewBox="0 0 24 24" fill="none" xmlns="http://www.w3.org/2000/svg">
<path d="M20.7159 9.91152L19.0694 9.49952C18.9826 9.25674 18.8808 9.01356 18.7651 8.77221L19.6399 7.31396C19.7286 7.16638 19.7051 6.97741 19.5836 6.85584L17.1442 4.41613C17.0227 4.29417 16.833 4.27146 16.6861 4.35974L15.2275 5.23499C14.9865 5.11926 14.7433 5.01745 14.5005 4.93068L14.0885 3.28417C14.0468 3.11718 13.897 3 13.7249 3H10.2752C10.1031 3 9.95329 3.11718 9.91152 3.28417L9.49952 4.93064C9.25674 5.01745 9.01356 5.11926 8.7726 5.23496L7.31396 4.35971C7.16638 4.27182 6.97741 4.29414 6.85584 4.4161L4.41652 6.8558C4.29495 6.97738 4.2715 7.16634 4.36013 7.31393L5.23499 8.77218C5.11926 9.01352 5.01745 9.25666 4.93068 9.49949L3.28417 9.91152C3.11718 9.95325 3 10.1031 3 10.2752V13.7249C3 13.897 3.11718 14.0468 3.28417 14.0886L4.93064 14.5005C5.01745 14.7433 5.11926 14.9865 5.23496 15.2279L4.36009 16.6861C4.27146 16.8337 4.29491 17.0227 4.41648 17.1442L6.8558 19.5836C6.97667 19.7048 7.16599 19.7278 7.31393 19.6399L8.77218 18.7651C9.01352 18.8808 9.25666 18.9826 9.49949 19.0694L9.91149 20.7159C9.95325 20.8829 10.103 21 10.2751 21H13.7249C13.897 21 14.0467 20.8829 14.0885 20.7159L14.5005 19.0694C14.7433 18.9826 14.9865 18.8808 15.2278 18.7651L16.6861 19.6399C16.8337 19.7282 17.0226 19.7055 17.1442 19.5836L19.5835 17.1442C19.7051 17.0227 19.7285 16.8337 19.6399 16.6861L18.765 15.2279C18.8808 14.9865 18.9826 14.7434 19.0694 14.5005L20.7158 14.0886C20.8828 14.0468 21 13.897 21 13.7249V10.2752C21 10.1031 20.8829 9.95325 20.7159 9.91152ZM20.25 13.4323L18.6892 13.8227C18.5636 13.8538 18.4629 13.9479 18.4234 14.071C18.3157 14.4042 18.1747 14.7415 18.0044 15.0737C17.9451 15.1887 17.9498 15.3264 18.0165 15.4377L18.8463 16.8209L16.8208 18.8464L15.438 18.0166C15.327 17.9506 15.1901 17.9455 15.074 18.0045C14.7415 18.1748 14.4042 18.3157 14.0709 18.4234C13.9479 18.463 13.8538 18.5637 13.8226 18.6893L13.4323 20.2501H10.5677L10.1774 18.6893C10.1463 18.5637 10.0521 18.463 9.92906 18.4234C9.59582 18.3157 9.25853 18.1748 8.92602 18.0045C8.81029 17.9448 8.67261 17.9499 8.56201 18.0166L7.17921 18.8464L5.15368 16.8208L5.98351 15.4376C6.05016 15.3263 6.05491 15.1886 5.9956 15.0736C5.8253 14.7415 5.68433 14.4042 5.57664 14.0709C5.53709 13.9479 5.43637 13.8538 5.31075 13.8226L3.74999 13.4323V10.5677L5.31079 10.1774C5.4364 10.1463 5.53713 10.0521 5.57668 9.92906C5.68436 9.59582 5.82534 9.25853 5.99564 8.92637C6.05498 8.81138 6.0502 8.67367 5.98354 8.56236L5.15368 7.17921L7.17921 5.15332L8.5624 5.98354C8.67374 6.05055 8.81141 6.05568 8.92641 5.99564C9.25856 5.82534 9.59585 5.68436 9.9291 5.57668C10.0521 5.53713 10.1463 5.4364 10.1774 5.31079L10.5678 3.74999H13.4323L13.8227 5.31079C13.8538 5.4364 13.9479 5.53713 14.071 5.57668C14.4042 5.68436 14.7415 5.82534 15.0737 5.99564C15.1883 6.05498 15.3264 6.04985 15.4377 5.98354L16.8209 5.15332L18.8464 7.17921L18.0166 8.5624C17.9499 8.67374 17.9452 8.81141 18.0045 8.92641C18.1748 9.25856 18.3157 9.59585 18.4234 9.9291C18.463 10.0521 18.5637 10.1463 18.6893 10.1774L20.2501 10.5678V13.4323H20.25Z" fill="white"/>
<path d="M12 7.5C9.51857 7.5 7.5 9.51857 7.5 12C7.5 14.4814 9.51857 16.5 12 16.5C14.4814 16.5 16.5 14.4814 16.5 12C16.5 9.51857 14.4814 7.5 12 7.5ZM12 15.75C9.93236 15.75 8.24999 14.0677 8.24999 12C8.24999 9.93236 9.9324 8.24999 12 8.24999C14.0676 8.24999 15.75 9.9324 15.75 12C15.75 14.0676 14.0677 15.75 12 15.75Z" fill="white"/>
</svg>
